<?xml version="1.0" standalone="no"?>
<!DOCTYPE svg PUBLIC "-//W3C//DTD SVG 20010904//EN"
 "http://www.w3.org/TR/2001/REC-SVG-20010904/DTD/svg10.dtd">
<svg version="1.0" xmlns="http://www.w3.org/2000/svg"
 width="1254.000000pt" height="1254.000000pt" viewBox="0 0 1254.000000 1254.000000"
 preserveAspectRatio="xMidYMid meet">

<g transform="translate(0.000000,1254.000000) scale(0.100000,-0.100000)"
fill="#000000" stroke="none">
<path d="M6073 8818 l-192 -193 196 -200 195 -200 194 199 195 200 -193 193
c-106 106 -195 193 -198 193 -3 0 -91 -87 -197 -192z m306 -83 c55 -58 101
-109 101 -113 0 -4 -47 -54 -105 -112 l-105 -105 -105 110 -104 109 61 65
c122 129 143 151 149 151 4 0 52 -47 108 -105z"/>
<path d="M5887 8138 c-20 -23 -34 -45 -31 -49 7 -12 258 -177 325 -213 36 -20
75 -36 87 -36 34 0 209 94 307 166 50 35 96 68 104 73 11 7 7 18 -18 55 -18
25 -34 46 -37 46 -2 0 -37 -25 -78 -55 -114 -86 -235 -155 -271 -155 -34 0
-152 69 -276 161 -37 27 -69 49 -72 49 -3 0 -21 -19 -40 -42z"/>
<path d="M5860 7710 c-18 -28 -31 -52 -29 -54 2 -2 88 -47 191 -102 l188 -99
0 -217 c0 -125 -4 -218 -9 -218 -13 0 -212 167 -684 572 -82 70 -152 128 -156
128 -4 0 -23 -20 -44 -44 l-37 -45 58 -48 c33 -26 193 -163 357 -303 163 -140
319 -273 346 -295 26 -22 48 -43 48 -46 1 -3 -72 -66 -161 -141 -90 -74 -272
-229 -406 -343 l-243 -207 38 -41 c21 -23 40 -42 44 -42 4 0 74 57 155 126 82
70 271 229 419 355 l270 227 3 -286 2 -287 60 0 60 0 2 285 3 286 171 -143
c283 -237 453 -381 564 -477 58 -50 108 -90 111 -88 3 1 22 21 43 44 l37 42
-103 89 c-57 50 -204 175 -328 278 -341 285 -379 318 -373 327 6 10 351 305
568 487 88 73 177 149 197 168 l37 35 -36 43 c-19 24 -39 44 -43 44 -4 0 -133
-107 -286 -238 -375 -320 -546 -462 -556 -462 -4 0 -8 98 -8 218 l0 217 186
95 c102 52 187 97 189 100 2 3 -13 28 -34 57 l-37 52 -84 -56 c-121 -78 -233
-133 -274 -133 -37 0 -136 48 -285 139 -46 28 -88 51 -92 51 -4 0 -21 -23 -39
-50z"/>
<path d="M5097 7022 c-42 -42 -77 -82 -77 -88 0 -6 37 -46 83 -87 l84 -76 84
85 84 86 -85 79 c-47 43 -87 79 -90 79 -3 0 -40 -35 -83 -78z"/>
<path d="M7270 7020 l-85 -79 85 -86 85 -85 77 77 c43 43 80 81 84 85 5 6
-145 168 -156 168 -3 -1 -43 -37 -90 -80z"/>
<path d="M2370 5590 c0 -5 7 -10 15 -10 16 0 55 -69 55 -98 0 -10 -65 -175
-145 -367 -121 -291 -151 -356 -180 -382 -19 -18 -44 -33 -54 -33 -11 0 -23
-4 -26 -10 -4 -6 43 -10 134 -10 143 0 176 8 99 26 -39 8 -43 12 -46 43 -2 23
10 69 35 133 l38 98 185 0 186 0 42 -102 c23 -57 42 -113 42 -125 0 -24 -34
-53 -62 -53 -9 0 -20 -4 -23 -10 -4 -7 57 -10 175 -10 169 0 212 7 143 25 -16
3 -38 16 -50 27 -12 11 -106 211 -210 444 l-187 424 -83 0 c-49 0 -83 -4 -83
-10z m209 -414 c34 -77 61 -141 61 -143 0 -2 -72 -3 -160 -3 -88 0 -160 2
-160 5 0 6 121 304 141 348 l13 29 23 -49 c12 -26 49 -111 82 -187z"/>
<path d="M3840 5592 c0 -6 9 -12 20 -15 12 -3 29 -24 40 -51 l21 -45 -145
-351 c-79 -192 -151 -362 -161 -376 -9 -14 -38 -36 -63 -47 l-47 -22 73 -3
c39 -2 105 -2 145 0 l72 3 -45 15 c-69 23 -71 44 -20 173 l42 107 185 -2 185
-3 45 -109 c53 -128 50 -147 -19 -168 l-43 -13 92 -3 c51 -1 135 -1 185 0 l93
3 -43 19 c-23 10 -51 30 -61 45 -10 14 -70 145 -134 291 -64 146 -145 330
-181 410 l-65 145 -85 3 c-48 1 -86 -1 -86 -6z m188 -358 c38 -88 73 -170 76
-182 l7 -22 -159 0 -160 0 76 189 c43 105 80 187 84 183 3 -4 38 -79 76 -168z"/>
<path d="M5078 5580 c71 -32 72 -37 72 -445 0 -288 -3 -362 -14 -390 -8 -19
-21 -35 -28 -35 -7 -1 -26 -7 -43 -15 -27 -12 -11 -13 149 -14 99 -1 176 2
172 7 -4 4 -24 12 -44 17 -56 16 -62 36 -62 233 l0 172 78 0 77 0 67 -103 c36
-56 91 -141 121 -189 76 -118 110 -141 225 -146 120 -5 167 13 81 32 -56 12
-104 63 -213 225 -63 93 -121 169 -137 178 -35 21 -37 33 -6 33 42 0 128 53
161 98 28 40 31 50 31 122 0 71 -3 82 -30 121 -38 54 -112 95 -195 108 -36 6
-164 11 -285 10 l-220 0 43 -19z m405 -31 c47 -13 106 -63 123 -106 8 -18 14
-57 14 -88 0 -70 -17 -112 -63 -152 -43 -38 -83 -47 -192 -48 l-80 0 -3 203
-2 202 82 0 c46 0 100 -5 121 -11z"/>
<path d="M6535 5590 c3 -5 15 -10 26 -10 37 0 97 -72 232 -278 l137 -209 0
-172 c0 -169 0 -172 -25 -196 -13 -14 -33 -25 -44 -25 -11 0 -23 -4 -26 -10
-4 -7 55 -10 169 -10 111 0 176 4 176 10 0 6 -13 10 -29 10 -16 0 -39 9 -52
19 -23 19 -24 24 -27 203 l-3 183 120 188 c66 103 132 202 146 220 30 35 80
66 108 67 9 0 17 5 17 10 0 6 -52 10 -136 10 -126 0 -164 -9 -94 -23 35 -7 48
-43 29 -79 -21 -40 -212 -339 -214 -336 -2 2 -53 82 -114 177 -125 195 -130
214 -71 243 34 17 32 17 -148 18 -120 0 -181 -3 -177 -10z"/>
<path d="M8337 5573 c17 -16 36 -42 43 -60 11 -29 7 -43 -53 -190 -230 -564
-227 -557 -262 -590 -19 -18 -44 -33 -54 -33 -11 0 -23 -4 -26 -10 -4 -6 43
-10 135 -10 135 0 173 10 95 24 -63 12 -65 38 -15 166 l43 110 185 -2 184 -3
46 -112 c44 -108 45 -112 28 -137 -9 -15 -26 -26 -39 -26 -12 0 -29 -5 -37
-10 -10 -6 46 -10 168 -10 169 0 225 9 151 24 -39 8 -76 50 -107 123 -23 56
-269 614 -317 721 l-24 52 -88 0 -87 0 31 -27z m160 -336 c40 -94 76 -180 79
-189 6 -17 -6 -18 -150 -18 -86 0 -156 3 -156 8 -1 12 145 372 150 372 3 0 38
-78 77 -173z"/>
<path d="M9515 5590 c3 -5 12 -10 19 -10 6 0 29 -17 49 -38 l37 -38 0 -367 c0
-407 -2 -419 -60 -432 -69 -15 -36 -25 85 -25 121 0 154 10 85 25 -58 13 -60
28 -60 395 0 181 3 330 8 330 4 -1 78 -85 164 -188 412 -492 481 -572 494
-572 12 0 14 67 14 413 0 372 2 415 18 447 11 24 27 38 50 45 61 18 32 25 -95
24 l-128 0 42 -19 c23 -10 46 -27 52 -38 11 -21 21 -622 10 -622 -6 0 -113
126 -418 492 l-156 188 -108 0 c-70 0 -106 -4 -102 -10z"/>
<path d="M3894 4173 c4 -10 28 -71 54 -135 63 -160 71 -159 137 10 28 70 52
130 53 135 2 4 -5 7 -16 7 -17 0 -28 -20 -61 -102 -22 -57 -43 -101 -48 -100
-4 2 -25 48 -46 103 -31 80 -42 99 -59 99 -15 0 -18 -4 -14 -17z"/>
<path d="M4437 4083 c-71 -166 -70 -163 -48 -163 11 0 24 12 31 30 7 17 15 30
19 30 3 1 32 3 64 6 l57 6 15 -36 c10 -23 22 -36 34 -36 17 0 13 14 -35 131
-30 72 -54 133 -54 135 0 2 -8 4 -19 4 -14 0 -29 -26 -64 -107z m90 -8 c11
-30 18 -56 15 -58 -4 -1 -26 0 -48 3 l-41 5 20 53 c11 28 22 52 26 52 3 0 16
-25 28 -55z"/>
<path d="M4906 4182 c-2 -4 -4 -65 -3 -135 l2 -127 83 0 c66 0 82 3 82 15 0
12 -14 15 -65 15 l-65 0 0 120 c0 98 -3 120 -14 120 -8 0 -17 -4 -20 -8z"/>
<path d="M5357 4183 c-4 -3 -7 -64 -7 -135 l0 -128 85 0 c69 0 85 3 85 15 0
12 -14 15 -65 15 l-65 0 0 120 c0 93 -3 120 -13 120 -8 0 -17 -3 -20 -7z"/>
<path d="M5805 4141 c-4 -27 -5 -88 -3 -135 l3 -86 88 0 c71 0 87 3 87 15 0
12 -14 15 -70 15 l-70 0 0 45 0 45 60 0 c47 0 60 3 60 15 0 12 -13 15 -60 15
l-60 0 0 40 0 39 67 3 c55 2 68 6 71 21 3 15 -6 17 -81 17 l-85 0 -7 -49z"/>
<path d="M6277 4143 c15 -27 37 -65 50 -85 16 -26 23 -53 23 -88 0 -43 3 -50
20 -50 17 0 20 7 20 50 0 42 8 65 46 131 26 44 44 83 41 86 -14 13 -37 -9 -68
-66 -19 -34 -36 -61 -39 -61 -3 0 -23 29 -43 65 -27 46 -43 65 -58 65 -19 0
-19 -2 8 -47z"/>
<path d="M7095 4181 c-117 -52 -105 -233 18 -260 55 -13 146 24 121 49 -7 7
-20 6 -40 -5 -65 -33 -129 -3 -141 67 -8 50 11 92 52 114 32 17 36 17 76 1 48
-19 70 -10 40 17 -23 21 -96 30 -126 17z"/>
<path d="M7600 4165 c-5 -13 -26 -64 -46 -112 -58 -140 -56 -133 -35 -133 11
0 24 12 31 30 7 17 18 31 24 31 6 1 22 3 36 5 53 7 85 -5 97 -36 7 -20 18 -30
32 -30 19 0 19 4 -15 83 -19 45 -44 106 -55 135 -23 59 -52 71 -69 27z m57
-90 c14 -37 17 -55 10 -56 -18 -2 -82 3 -85 5 -4 5 40 106 47 106 3 0 16 -25
28 -55z"/>
<path d="M8030 4055 c0 -113 2 -135 15 -135 12 0 15 15 16 73 1 39 1 78 0 85
-4 29 17 7 48 -53 19 -36 41 -65 48 -65 7 0 30 33 50 73 l38 72 3 -92 c2 -74
6 -93 17 -93 15 0 16 9 19 232 1 23 -4 34 -15 36 -12 2 -29 -21 -59 -80 -23
-46 -45 -86 -49 -90 -4 -4 -28 33 -54 82 -68 127 -77 122 -77 -45z"/>
<path d="M8588 4184 c-5 -4 -8 -65 -8 -136 0 -120 1 -128 19 -128 17 0 20 8
23 48 3 45 4 47 31 44 39 -5 94 16 112 41 22 31 18 72 -8 103 -20 23 -33 27
-93 31 -38 3 -72 2 -76 -3z m140 -46 c15 -13 16 -60 0 -76 -7 -7 -34 -12 -60
-12 l-48 0 0 48 c0 27 2 51 4 53 8 8 90 -3 104 -13z"/>
<path d="M2686 4063 c-3 -3 -6 -10 -6 -15 0 -4 160 -8 356 -8 280 0 355 3 351
13 -3 9 -83 12 -349 14 -190 1 -348 -1 -352 -4z"/>
<path d="M9178 4063 c-16 -2 -28 -9 -28 -14 0 -5 142 -9 356 -9 280 0 355 3
352 13 -4 9 -79 12 -329 13 -178 1 -336 -1 -351 -3z"/>
</g>
</svg>
